<?xml version="1.0" standalone="no"?>
<!DOCTYPE svg PUBLIC "-//W3C//DTD SVG 20010904//EN"
 "http://www.w3.org/TR/2001/REC-SVG-20010904/DTD/svg10.dtd">
<svg version="1.0" xmlns="http://www.w3.org/2000/svg"
 width="500.000000pt" height="500.000000pt" viewBox="0 0 500.000000 500.000000"
 preserveAspectRatio="xMidYMid meet">
<metadata>
Created by potrace 1.14, written by Peter Selinger 2001-2017
</metadata>
<g transform="translate(0.000000,500.000000) scale(0.100000,-0.100000)"
fill="#000000" stroke="none">
<path d="M2504 4992 c-9 -6 -24 -46 -25 -67 0 -2 -6 -20 -15 -40 -8 -19 -11
-35 -7 -35 5 0 -1 -7 -12 -16 -11 -8 -19 -17 -17 -19 1 -3 1 -7 1 -10 -4 -15
-7 -23 -18 -50 -7 -16 -13 -32 -14 -35 -1 -3 -7 -12 -14 -20 -7 -8 -13 -18
-13 -22 -1 -4 -9 -27 -19 -50 -20 -47 -13 -95 13 -85 8 3 16 0 19 -6 6 -17 -3
-38 -14 -31 -5 3 -9 0 -9 -6 0 -7 -6 -8 -17 -1 -10 5 -22 10 -28 11 -25 6 -62
27 -85 47 -14 13 -28 23 -32 23 -5 0 -8 9 -8 20 0 11 -4 20 -10 20 -5 0 -10 8
-10 18 0 10 -4 22 -9 28 -5 5 -12 31 -16 59 -3 27 -8 51 -9 53 -2 2 -14 -14
-27 -35 -13 -21 -25 -40 -28 -43 -4 -3 -8 -14 -9 -25 -2 -11 -7 -22 -11 -25
-8 -5 -24 -55 -25 -75 -1 -5 -6 -15 -12 -22 -18 -19 -17 -130 1 -156 8 -12 19
-21 23 -19 4 2 8 -4 10 -13 3 -12 -5 -15 -42 -13 -25 2 -46 8 -46 13 0 6 -4 4
-9 -4 -6 -9 -11 -10 -15 -2 -4 6 -15 11 -25 11 -37 0 -109 97 -113 155 -5 51
-26 21 -34 -49 -3 -22 -7 -43 -10 -47 -2 -4 0 -10 5 -14 6 -3 8 -12 5 -20 -5
-12 11 -59 38 -109 7 -13 6 -16 -2 -11 -13 8 9 -36 23 -46 5 -3 8 -9 8 -13 -3
-21 1 -28 22 -35 13 -5 27 -5 35 2 10 8 21 2 45 -23 42 -44 117 -161 111 -172
-3 -4 -1 -8 4 -8 8 0 15 -14 23 -50 0 -3 5 -11 11 -17 6 -7 7 -13 4 -13 -4 0
-1 -10 6 -22 16 -30 19 -48 7 -48 -6 0 -8 -4 -5 -9 3 -5 -1 -12 -9 -15 -13 -5
-32 -37 -40 -68 -2 -5 -4 -11 -5 -15 -1 -5 -1 -12 0 -18 10 -40 7 -60 -13 -75
-31 -25 -74 -5 -68 33 0 4 -4 7 -9 7 -6 0 -10 8 -10 18 0 10 -6 24 -12 31 -11
11 -10 13 2 7 8 -4 6 1 -6 11 -21 18 -39 51 -36 66 1 4 -6 7 -15 7 -9 0 -14 3
-10 6 8 8 -40 52 -64 59 -11 4 -19 12 -19 18 0 7 -4 6 -10 -3 -7 -11 -10 -11
-10 -2 0 7 -4 11 -9 7 -9 -5 -61 13 -71 26 -3 3 -14 8 -25 11 -11 3 -28 9 -37
13 -10 4 -1 -11 20 -33 72 -78 93 -120 96 -189 1 -11 4 -19 9 -16 4 2 5 -6 3
-19 -2 -13 0 -32 4 -43 5 -13 3 -28 -6 -40 -10 -13 -14 -15 -14 -4 0 8 -3 10
-8 4 -4 -5 -14 -11 -22 -13 -8 -2 -12 0 -8 3 10 10 -21 67 -32 60 -5 -3 -12 4
-15 16 -6 17 -9 19 -16 8 -7 -11 -9 -10 -9 5 0 12 -5 16 -15 12 -9 -3 -15 0
-15 10 0 8 -4 12 -10 9 -5 -3 -10 -2 -10 3 0 5 -9 12 -21 15 -12 3 -19 10 -16
14 3 5 -3 15 -15 22 -11 7 -17 8 -14 2 4 -7 1 -8 -8 -5 -9 3 -14 11 -13 17 1
7 -4 11 -10 10 -12 -3 -18 10 -14 31 1 4 -11 6 -28 4 -24 -3 -29 -1 -26 14 2
10 7 23 11 29 3 6 -5 4 -19 -5 -22 -15 -25 -15 -31 -1 -3 8 -9 15 -13 14 -4
-1 -15 -1 -23 0 -13 1 -13 3 0 10 8 6 18 7 22 5 4 -3 8 2 8 11 0 11 -5 15 -15
11 -8 -3 -14 -2 -14 2 5 29 -5 50 -30 65 -37 21 -38 21 -52 -4 -8 -15 -8 -19
0 -15 6 4 11 2 11 -3 0 -9 -28 -14 -56 -10 -4 0 -11 -5 -15 -13 -5 -7 -9 -8
-9 -2 0 11 -28 13 -45 2 -6 -3 -28 -6 -50 -7 -76 -4 -101 -8 -115 -16 -9 -6
-11 -4 -5 6 7 11 6 12 -6 3 -8 -6 -24 -10 -36 -9 -13 1 -23 -1 -23 -5 0 -3
-16 -6 -35 -5 -20 1 -35 -3 -35 -9 0 -6 -4 -5 -9 3 -6 9 -11 10 -15 3 -4 -6
-13 -9 -21 -5 -9 3 -15 -1 -15 -8 0 -11 -3 -11 -10 1 -6 9 -13 11 -17 5 -5 -6
-24 -11 -43 -13 -19 -1 -42 -3 -50 -4 -15 -1 -78 -58 -64 -58 4 0 -1 -9 -12
-21 -14 -16 -19 -37 -19 -92 0 -40 -4 -77 -7 -83 -4 -6 -4 -14 0 -18 10 -11 8
-90 -3 -98 -7 -5 -7 -8 0 -8 11 0 12 -73 1 -107 -4 -13 -14 -21 -26 -20 -10 1
-16 5 -14 9 3 4 -2 8 -10 8 -9 0 -16 6 -16 13 0 9 -3 8 -9 -2 -10 -15 -3 -51
10 -51 4 0 6 -9 4 -20 -2 -11 2 -20 8 -20 7 0 -1 -12 -16 -25 -16 -14 -33 -22
-39 -19 -6 4 -17 -1 -24 -10 -7 -10 -15 -17 -18 -17 -3 1 -6 -2 -5 -5 0 -4 -4
-10 -10 -14 -23 -14 -31 -97 -11 -110 6 -4 11 -9 9 -11 -5 -9 13 -49 22 -49 6
0 7 -4 4 -10 -3 -5 -2 -10 3 -10 5 0 15 -12 23 -27 17 -33 33 -54 76 -100 18
-19 33 -39 33 -44 0 -5 7 -9 16 -9 8 0 12 -4 9 -10 -3 -5 -3 -10 2 -10 4 0 24
-13 43 -30 l34 -29 2 -198 c2 -190 8 -297 20 -355 3 -15 7 -41 9 -58 3 -18 10
-39 17 -48 11 -13 11 -14 -1 -7 -11 6 -13 4 -7 -11 4 -10 10 -31 13 -46 3 -17
10 -25 17 -21 7 4 6 1 -1 -9 -7 -8 -10 -18 -6 -22 4 -4 9 -19 11 -34 2 -15 7
-29 11 -32 4 -3 8 -12 9 -20 1 -21 7 -43 13 -55 5 -8 30 -77 34 -95 1 -3 7
-18 14 -35 7 -16 12 -31 11 -33 0 -1 11 -22 24 -46 14 -24 22 -47 19 -50 -4
-3 -1 -6 6 -6 7 0 9 -5 6 -10 -3 -5 -2 -10 3 -10 5 0 12 -9 15 -20 9 -33 9
-34 26 -48 13 -11 13 -12 1 -7 -10 4 -9 2 3 -8 9 -8 17 -19 17 -24 0 -6 9 -22
21 -37 11 -14 17 -31 13 -38 -4 -7 -3 -10 1 -5 5 4 20 -12 33 -35 14 -24 32
-47 39 -51 7 -5 11 -12 8 -18 -4 -5 2 -9 11 -9 10 0 14 -3 11 -6 -4 -4 3 -15
14 -25 11 -9 19 -19 17 -21 -6 -6 29 -48 35 -41 4 3 7 -1 7 -9 0 -9 7 -19 16
-22 9 -4 15 -9 12 -12 -8 -7 167 -184 182 -184 8 0 11 -3 7 -6 -7 -7 38 -54
53 -54 5 0 9 -3 8 -7 -4 -13 52 -64 63 -58 5 4 9 -1 9 -9 0 -8 9 -20 20 -26
11 -6 33 -23 48 -38 46 -44 105 -87 115 -84 5 1 6 -1 3 -6 -2 -4 7 -17 21 -28
15 -10 32 -25 40 -32 7 -7 13 -10 13 -6 0 4 8 -3 19 -14 10 -12 21 -19 25 -15
3 3 6 -1 6 -10 0 -10 7 -17 15 -17 9 0 18 -7 21 -15 4 -8 12 -15 20 -15 7 0
18 -8 23 -18 6 -9 11 -14 11 -10 0 8 20 -7 68 -50 14 -12 28 -22 31 -22 3 0
22 -14 41 -30 19 -16 40 -34 47 -40 7 -5 16 -10 20 -10 5 0 15 -9 23 -20 8
-11 18 -20 23 -20 5 0 14 -6 21 -12 7 -7 28 -24 46 -38 70 -53 147 -116 183
-153 21 -20 40 -37 43 -37 3 0 15 -12 28 -26 29 -34 51 -27 105 31 23 25 41
42 41 38 0 -4 8 2 18 13 10 10 33 30 51 44 18 14 42 34 52 44 10 11 19 16 19
12 0 -4 11 5 25 20 14 15 25 23 25 19 0 -4 8 2 19 13 10 12 21 19 24 15 4 -3
9 2 13 11 3 9 10 16 15 16 9 0 37 21 70 52 9 9 20 14 23 11 3 -3 8 2 12 11 3
9 12 16 19 16 7 0 20 10 29 23 9 12 14 16 11 10 -4 -8 -1 -11 9 -7 9 3 13 10
10 15 -3 5 0 9 5 9 6 0 20 9 32 21 11 11 29 21 39 22 11 1 16 6 12 17 -3 8 -2
12 3 8 4 -4 30 15 57 42 28 28 54 50 59 50 5 0 9 5 9 12 0 6 3 8 7 5 3 -4 18
6 32 21 15 15 46 43 71 62 24 19 53 44 65 55 11 11 32 29 47 39 15 11 24 24
21 29 -3 6 -1 7 5 3 6 -3 20 6 31 20 12 15 21 24 21 20 0 -3 9 3 20 14 11 11
20 24 20 30 0 5 3 9 8 7 8 -2 141 131 207 208 22 26 46 53 53 60 6 8 12 18 12
23 0 6 7 13 16 16 8 3 13 10 9 15 -3 5 4 12 15 16 11 4 18 10 15 15 -3 4 2 13
10 20 8 7 15 19 15 26 0 8 4 14 8 14 5 0 17 16 28 35 10 19 21 35 24 35 4 0
12 16 20 35 8 19 17 35 21 35 4 0 10 14 14 30 4 17 11 28 16 24 5 -3 10 0 10
5 1 6 2 14 3 19 1 4 14 33 29 64 16 32 25 63 21 69 -4 7 -3 9 4 5 6 -3 15 9
22 31 7 21 17 44 23 51 5 6 6 12 2 12 -4 0 -2 7 5 15 7 8 9 15 5 15 -4 0 -2 7
5 15 7 8 9 15 5 15 -5 0 -1 8 7 18 8 9 18 35 22 57 8 44 14 70 16 70 3 0 18
69 26 115 3 19 9 42 13 50 4 8 6 27 5 43 0 15 2 27 6 27 4 0 5 12 2 26 -3 15
-1 24 4 21 5 -3 7 15 5 39 -1 24 0 52 4 62 7 15 10 48 5 55 -6 8 -7 37 -1 37
9 0 8 31 -2 47 -4 6 -1 14 5 16 9 4 9 6 1 6 -8 1 -9 10 -3 31 5 19 5 28 -1 25
-5 -4 -5 4 1 19 6 18 6 26 -1 26 -6 0 -7 5 -4 11 10 16 12 69 3 69 -4 0 -8 5
-8 11 0 5 4 7 10 4 7 -4 7 2 0 19 -8 22 -6 27 13 38 32 17 177 169 177 186 0
5 11 21 25 36 13 14 21 26 18 26 -3 0 2 9 12 20 10 11 14 20 9 20 -5 0 -4 4 1
8 29 21 48 102 24 102 -5 0 -8 4 -4 9 3 5 1 12 -5 16 -6 4 -8 11 -5 16 4 5 1
9 -4 9 -6 0 -11 7 -11 15 0 8 -5 15 -11 15 -6 0 -9 7 -5 15 3 8 1 15 -5 15 -6
0 -7 5 -4 10 3 6 2 10 -3 10 -10 0 -25 37 -23 53 1 5 -3 6 -9 2 -9 -6 -14 7
-11 28 0 4 -3 7 -9 7 -5 0 -10 -4 -10 -8 0 -5 -6 -9 -12 -10 -7 0 -23 -4 -35
-7 l-22 -7 -1 178 c-1 99 -2 189 -1 202 0 12 -15 46 -34 73 -19 28 -35 47 -35
43 0 -5 -7 2 -16 14 -8 12 -20 20 -25 17 -5 -4 -9 -2 -9 3 0 5 -16 13 -35 19
-26 8 -35 8 -35 0 0 -9 -2 -9 -8 -1 -4 6 -31 11 -60 10 -28 -1 -54 4 -56 9 -3
7 -5 7 -5 0 -1 -6 -27 -8 -71 -5 -40 3 -75 1 -80 -4 -7 -7 -10 -6 -10 0 0 5
-22 9 -50 8 -27 0 -50 3 -50 8 0 4 -11 8 -25 8 -14 0 -25 5 -25 10 0 6 -3 9
-7 8 -5 -1 -18 4 -31 11 -29 16 -64 23 -57 11 3 -4 -5 -17 -18 -27 -13 -10
-24 -21 -25 -25 -4 -14 -40 -46 -46 -40 -3 3 -6 -2 -6 -11 0 -9 -4 -17 -10
-17 -5 0 -30 -20 -54 -45 -25 -25 -50 -45 -56 -45 -5 0 -10 -7 -10 -15 0 -8
-3 -14 -8 -12 -4 1 -29 -19 -56 -45 -27 -26 -52 -45 -56 -43 -4 3 -11 -2 -14
-10 -3 -8 -9 -15 -13 -14 -4 1 -11 0 -15 -1 -5 -1 -12 -4 -18 -5 -5 -1 -11 -3
-12 -5 -2 -1 -15 -3 -30 -4 -26 -2 -27 0 -23 39 3 22 7 51 11 65 3 14 6 31 6
38 1 6 5 12 10 12 5 0 6 5 3 10 -3 6 -1 10 5 10 6 0 8 5 5 10 -6 9 3 23 55 86
5 7 6 15 3 18 -4 3 -2 6 4 6 6 0 13 7 16 15 5 11 -3 9 -29 -6 -19 -10 -41 -16
-47 -13 -7 4 -9 4 -5 -1 7 -7 -54 -55 -70 -55 -9 -1 -67 -79 -67 -91 0 -5 -6
-14 -14 -18 -9 -6 -10 -10 -2 -16 7 -4 8 -11 3 -18 -5 -7 -9 -28 -11 -47 -1
-19 -9 -42 -18 -50 -9 -8 -13 -10 -10 -4 3 6 -8 18 -26 28 -24 13 -27 13 -13
2 11 -9 15 -16 9 -16 -6 0 -16 7 -23 15 -7 9 -19 14 -27 11 -8 -3 -11 -1 -8 4
3 6 -1 10 -9 10 -9 0 -16 5 -16 11 0 5 -4 7 -10 4 -5 -3 -11 2 -12 12 0 10 -2
23 -2 29 -1 6 -10 23 -20 38 -10 16 -13 25 -6 21 8 -5 7 0 -2 14 -7 12 -16 21
-20 21 -10 0 -4 47 10 81 6 15 8 30 5 33 -4 3 -1 6 5 6 7 0 11 3 10 8 -4 13
50 110 94 169 24 31 46 61 49 66 4 5 17 4 30 -3 17 -10 24 -10 27 -1 2 6 8 9
13 5 5 -3 12 8 15 25 4 17 11 31 17 31 6 0 8 3 5 6 -4 3 0 21 8 40 8 19 11 34
7 34 -5 0 -2 4 5 8 7 5 15 19 18 33 9 41 10 130 2 135 -4 3 -8 13 -8 24 0 19
-26 36 -27 17 -2 -51 -56 -153 -74 -141 -5 3 -9 0 -9 -5 0 -6 -5 -11 -12 -11
-6 0 -20 -7 -30 -17 -12 -10 -18 -12 -18 -4 0 7 -5 9 -12 4 -7 -4 -38 -9 -68
-10 -54 -3 -55 -3 -34 14 12 10 30 24 41 31 13 10 18 24 17 55 -1 44 -12 105
-22 122 -4 6 -8 17 -9 26 -4 25 -77 162 -89 166 -5 2 -11 -14 -12 -34 -2 -21
-7 -40 -13 -43 -5 -4 -7 -14 -3 -23 3 -10 1 -17 -6 -17 -6 0 -9 -4 -5 -9 3 -5
1 -12 -5 -16 -6 -4 -8 -10 -5 -15 3 -4 -2 -11 -11 -14 -8 -3 -12 -11 -8 -17 4
-8 3 -9 -4 -5 -7 4 -12 3 -12 -3 0 -5 -20 -19 -45 -31 -25 -12 -52 -28 -60
-36 -11 -11 -19 -12 -39 -2 -33 14 -33 32 -1 46 28 13 30 19 13 59 -6 15 -12
34 -14 41 -1 7 -12 28 -23 48 -12 20 -19 40 -16 45 4 5 2 9 -3 9 -9 0 -23 31
-26 55 -1 6 -4 12 -8 15 -4 3 -9 15 -11 25 -2 11 -9 31 -14 45 -6 14 -9 28 -6
33 2 4 -1 7 -6 7 -6 0 -11 10 -11 23 0 29 -13 48 -26 39z"/>
<path d="M1376 3893 c-3 -3 -3 -10 0 -14 7 -12 34 -11 34 0 0 11 -26 22 -34
14z"/>
<path d="M1428 3843 c7 -3 16 -2 19 1 4 3 -2 6 -13 5 -11 0 -14 -3 -6 -6z"/>
<path d="M3080 3680 c-9 -6 -10 -10 -3 -10 6 0 15 5 18 10 8 12 4 12 -15 0z"/>
</g>
</svg>
